<svg xmlns="http://www.w3.org/2000/svg" width="1014" height="1034" viewBox="0 0 1014 1034">
<g>
<path d="M 0.00 0.00 L 1014.00 0.00 L 1014.00 1034.00 L 0.00 1034.00 ZM 466.44 794.51 C472.53,795.22 482.67,795.73 489.00,795.65 L 500.50 795.50 L 500.76 714.90 L 501.01 634.30 L 490.89 633.64 C470.46,632.30 449.28,626.29 429.70,616.29 C387.35,594.66 357.63,555.27 348.00,508.01 C346.90,502.61 346.00,496.57 346.00,494.59 L 346.00 491.00 L 379.50 491.00 L 545.50 657.01 L 657.50 656.50 L 658.01 544.50 L 579.51 466.00 L 501.00 387.50 L 501.00 335.81 L 506.25 336.49 C545.03,341.47 578.11,357.20 604.07,383.00 C625.58,404.39 640.57,431.82 646.39,460.50 C647.72,467.05 649.87,484.56 649.97,489.75 C649.99,490.74 667.48,491.00 734.00,491.00 L 818.00 491.00 L 818.00 481.46 C818.00,468.21 815.43,446.18 811.90,429.18 C790.39,325.65 718.51,240.35 617.91,199.00 C578.71,182.89 533.69,173.71 494.00,173.73 C420.20,173.76 339.47,206.25 284.69,257.95 C253.75,287.15 233.99,313.77 215.97,350.50 C200.10,382.87 191.53,410.13 185.93,446.00 C175.26,514.43 195.92,596.27 239.84,659.50 C254.99,681.32 281.25,709.47 301.74,725.88 C348.50,763.32 406.66,787.55 466.44,794.51 Z" fill="rgb(0,0,0)"/>
<path d="M 466.44 794.51 C406.66,787.55 348.50,763.32 301.74,725.88 C281.25,709.47 254.99,681.32 239.84,659.50 C195.92,596.27 175.26,514.43 185.93,446.00 C191.53,410.13 200.10,382.87 215.97,350.50 C233.99,313.77 253.75,287.15 284.69,257.95 C339.47,206.25 420.20,173.76 494.00,173.73 C533.69,173.71 578.71,182.89 617.91,199.00 C718.51,240.35 790.39,325.65 811.90,429.18 C815.43,446.18 818.00,468.21 818.00,481.46 L 818.00 491.00 L 734.00 491.00 C667.48,491.00 649.99,490.74 649.97,489.75 C649.87,484.56 647.72,467.05 646.39,460.50 C640.57,431.82 625.58,404.39 604.07,383.00 C578.11,357.20 545.03,341.47 506.25,336.49 L 501.00 335.81 L 501.00 361.66 L 501.00 387.50 L 579.51 466.00 L 658.01 544.50 L 657.76 600.50 L 657.50 656.50 L 601.50 656.76 L 545.50 657.01 L 462.50 574.01 L 379.50 491.00 L 362.75 491.00 L 346.00 491.00 L 346.00 494.59 C346.00,496.57 346.90,502.61 348.00,508.01 C357.63,555.27 387.35,594.66 429.70,616.29 C449.28,626.29 470.46,632.30 490.89,633.64 L 501.01 634.30 L 500.76 714.90 L 500.50 795.50 L 489.00 795.65 C482.67,795.73 472.53,795.22 466.44,794.51 Z" fill="rgb(254,254,254)"/>
</g>
</svg>